<svg xmlns="http://www.w3.org/2000/svg" viewBox="0 0 53.6 46"><defs><style>.cls-1{fill:#e53935;}</style></defs><title>notification-red</title><g id="Layer_2" data-name="Layer 2"><g id="Layer_1-2" data-name="Layer 1"><path d="M41.46,9.24A19.12,19.12,0,0,0,40,7.42a22.08,22.08,0,0,0-4.56-3.83A21.58,21.58,0,0,0,23.85.25h-.77A21.25,21.25,0,0,0,20.61.5h0c-.6.09-1.21.21-1.79.35a21.55,21.55,0,0,0-6.88,3A18.34,18.34,0,0,0,10.1,5.17c-.36.29-.71.59-1,.91A21.52,21.52,0,0,0,7.25,8a21.78,21.78,0,0,0-4.13,7.4c-.16.52-.31,1-.44,1.59A21.73,21.73,0,0,0,4.49,32L0,46l13.49-4.83a21.54,21.54,0,0,0,10.36,2.64,21.79,21.79,0,0,0,6-.84c.53-.14,1-.32,1.56-.51a21.64,21.64,0,0,0,9-6.26L40.5,36a17.93,17.93,0,0,0,1.27-1.66A21.45,21.45,0,0,0,45.42,25c0-.08,0-.15,0-.23.07-.51.12-1,.14-1.55,0-.35,0-.7,0-1,0-.06,0-.12,0-.18A21.55,21.55,0,0,0,41.46,9.24Zm2.62,15c0,.06,0,.13,0,.19a18.8,18.8,0,0,1-.31,1.86c0,.15-.07.3-.1.45a20.08,20.08,0,0,1-1.95,5.08,17.49,17.49,0,0,1-1.28,2A20.29,20.29,0,0,1,38,36.66a20.34,20.34,0,0,1-8,4.77,15.21,15.21,0,0,1-1.65.44,20.16,20.16,0,0,1-13-1.38,12.48,12.48,0,0,1-1.59-.84h0L12,40.27h0L2.09,43.84,5,34.71H5l1-3c-.3-.55-.57-1.13-.82-1.71A20.26,20.26,0,0,1,3.51,22a19.64,19.64,0,0,1,.33-3.58,14.88,14.88,0,0,1,.37-1.68,20.19,20.19,0,0,1,2.87-6.22,19.92,19.92,0,0,1,1.55-2,20.3,20.3,0,0,1,3.88-3.4,17.49,17.49,0,0,1,2.27-1.33,18.34,18.34,0,0,1,2.72-1.13c.43-.14.86-.27,1.29-.38l.67-.16c.57-.13,1.15-.23,1.74-.31a20.34,20.34,0,0,1,15,4A20.49,20.49,0,0,1,39,8.52,20.2,20.2,0,0,1,44.2,22,19.81,19.81,0,0,1,44.08,24.2Z"/><circle class="cls-1" cx="43.1" cy="10.5" r="10.5"/></g></g></svg>