<svg xmlns="http://www.w3.org/2000/svg" viewBox="0 0 45.64 45.75"><title>notification</title><g id="Layer_2" data-name="Layer 2"><g id="Layer_1-2" data-name="Layer 1"><path d="M41.46,9A19.12,19.12,0,0,0,40,7.17a22.08,22.08,0,0,0-4.56-3.83A21.58,21.58,0,0,0,23.85,0h-.77a21.25,21.25,0,0,0-2.47.23h0c-.6.09-1.21.21-1.79.35a21.55,21.55,0,0,0-6.88,3A18.34,18.34,0,0,0,10.1,4.92c-.36.29-.71.59-1,.91a21.52,21.52,0,0,0-1.8,1.88,21.78,21.78,0,0,0-4.13,7.4c-.16.52-.31,1-.44,1.59a21.73,21.73,0,0,0,1.81,15L0,45.75l13.49-4.83a21.54,21.54,0,0,0,10.36,2.64,21.79,21.79,0,0,0,6-.84c.53-.14,1-.32,1.56-.51a21.64,21.64,0,0,0,9-6.26l.13-.16a17.93,17.93,0,0,0,1.27-1.66,21.45,21.45,0,0,0,3.65-9.35c0-.08,0-.15,0-.23.07-.51.12-1,.14-1.55,0-.35,0-.7,0-1,0-.06,0-.12,0-.18A21.55,21.55,0,0,0,41.46,9Zm2.62,15c0,.06,0,.13,0,.19A18.8,18.8,0,0,1,43.75,26c0,.15-.07.3-.1.45a20.08,20.08,0,0,1-1.95,5.08,17.49,17.49,0,0,1-1.28,2A20.29,20.29,0,0,1,38,36.41a20.34,20.34,0,0,1-8,4.77,15.21,15.21,0,0,1-1.65.44,20.16,20.16,0,0,1-13-1.38,12.48,12.48,0,0,1-1.59-.84h0L12,40h0L2.09,43.59,5,34.46H5l1-3c-.3-.55-.57-1.13-.82-1.71a20.26,20.26,0,0,1-1.62-7.95,19.64,19.64,0,0,1,.33-3.58,14.88,14.88,0,0,1,.37-1.68A20.19,20.19,0,0,1,7.08,10.3a19.92,19.92,0,0,1,1.55-2,20.3,20.3,0,0,1,3.88-3.4,17.49,17.49,0,0,1,2.27-1.33,18.34,18.34,0,0,1,2.72-1.13c.43-.14.86-.27,1.29-.38l.67-.16c.57-.13,1.15-.23,1.74-.31a20.34,20.34,0,0,1,15,4A20.49,20.49,0,0,1,39,8.27a20.2,20.2,0,0,1,5.16,13.5A19.81,19.81,0,0,1,44.08,23.95Z"/></g></g></svg>